<?xml version="1.0" standalone="no"?>
<!DOCTYPE svg PUBLIC "-//W3C//DTD SVG 20010904//EN"
 "http://www.w3.org/TR/2001/REC-SVG-20010904/DTD/svg10.dtd">
<svg version="1.0" xmlns="http://www.w3.org/2000/svg"
 width="200.000000pt" height="200.000000pt" viewBox="0 0 200.000000 200.000000"
 preserveAspectRatio="xMidYMid meet">

<g transform="translate(0.000000,200.000000) scale(0.100000,-0.100000)"
fill="#000000" stroke="none">
<path d="M1022 1781 c-109 -27 -216 -85 -297 -162 -61 -58 -78 -69 -135 -83
-159 -40 -293 -135 -347 -245 -24 -49 -28 -68 -28 -146 0 -80 3 -95 27 -136
49 -83 134 -141 254 -174 78 -21 283 -32 312 -16 11 6 41 48 65 94 24 45 106
196 181 335 75 139 136 254 136 257 0 3 -49 5 -109 5 l-109 0 -60 -107 c-33
-60 -108 -196 -167 -303 -60 -107 -109 -196 -109 -197 -4 -5 -113 25 -147 39
-122 53 -178 178 -139 313 29 102 160 191 312 211 48 6 59 13 116 71 127 130
242 179 394 171 51 -3 96 -11 116 -22 90 -47 165 -155 178 -258 7 -51 15 -62
55 -71 41 -10 120 -86 145 -142 34 -71 33 -143 -2 -185 -26 -30 -149 -100
-178 -100 -8 0 -61 87 -128 210 -62 115 -116 210 -119 210 -3 0 -16 -23 -29
-51 -18 -38 -21 -54 -14 -67 41 -67 186 -333 183 -336 -4 -4 -309 -54 -386
-63 -23 -3 -44 -12 -47 -19 -4 -11 40 -12 257 -8 290 6 368 14 442 48 116 52
169 137 170 266 0 60 -5 86 -26 130 -34 73 -81 125 -145 161 -45 26 -52 35
-58 67 -8 55 -61 154 -105 200 -107 110 -275 148 -459 103z"/>
<path d="M385 628 c-3 -8 -5 -53 -3 -99 l3 -84 47 1 c53 0 75 15 95 62 11 27
11 37 0 65 -19 44 -39 59 -92 65 -33 3 -46 1 -50 -10z m101 -44 c20 -19 24
-31 20 -52 -8 -34 -41 -62 -72 -62 -23 0 -24 3 -24 70 0 68 1 70 25 70 14 0
37 -11 51 -26z"/>
<path d="M1060 549 c-22 -62 -29 -94 -22 -101 7 -7 14 -3 21 11 16 29 76 30
84 1 6 -22 27 -28 27 -7 0 25 -56 181 -67 184 -5 2 -25 -37 -43 -88z m59 -26
c1 -7 -8 -13 -19 -13 -23 0 -23 0 -9 37 10 26 12 27 19 8 5 -11 9 -26 9 -32z"/>
<path d="M569 559 c-46 -46 7 -135 68 -113 42 14 43 37 1 29 -25 -5 -38 -2
-47 9 -12 14 -7 16 43 16 49 0 56 2 56 20 0 53 -81 79 -121 39z m86 -19 c4 -6
-10 -10 -35 -10 -25 0 -39 4 -35 10 3 6 19 10 35 10 16 0 32 -4 35 -10z"/>
<path d="M732 564 c-22 -15 -30 -66 -14 -90 14 -21 49 -33 88 -30 l39 2 -1 47
c-1 76 -55 111 -112 71z m78 -29 c10 -12 10 -21 2 -40 -13 -29 -43 -33 -66 -9
-19 18 -19 20 -6 45 13 23 52 25 70 4z"/>
<path d="M880 553 c-15 -20 -20 -38 -18 -67 4 -55 22 -52 28 4 4 37 10 47 33
58 15 7 25 17 22 23 -11 18 -44 9 -65 -18z"/>
<path d="M1192 568 c3 -7 17 -14 31 -16 15 -2 27 -6 27 -9 0 -3 -14 -23 -31
-44 -17 -21 -28 -43 -24 -49 3 -5 28 -10 56 -10 37 0 49 4 49 15 0 10 -10 15
-30 15 -16 0 -30 3 -30 6 0 3 14 23 30 44 17 21 30 43 30 49 0 7 -22 11 -56
11 -40 0 -55 -4 -52 -12z"/>
<path d="M1320 526 c0 -45 4 -58 22 -70 52 -36 88 -6 88 73 0 68 -23 65 -30
-5 -4 -41 -8 -49 -25 -49 -17 0 -20 8 -23 53 -2 37 -7 52 -18 52 -10 0 -14
-14 -14 -54z"/>
<path d="M1470 560 c-15 -15 -20 -33 -20 -71 0 -66 24 -62 28 5 3 39 7 48 28
56 13 5 24 14 24 20 0 17 -39 11 -60 -10z"/>
<path d="M1556 564 c-54 -53 -5 -138 70 -120 13 4 24 13 24 22 0 12 -7 14 -33
9 -24 -5 -37 -2 -46 9 -12 14 -7 16 43 16 49 0 56 2 56 20 0 49 -79 79 -114
44z m79 -24 c4 -6 -8 -10 -30 -10 -22 0 -34 4 -30 10 3 6 17 10 30 10 13 0 27
-4 30 -10z"/>
</g>
</svg>
